<svg id="color" enable-background="new 0 0 24 24" height="512" viewBox="0 0 24 24" width="512" xmlns="http://www.w3.org/2000/svg"><path d="m12 0c-6.617 0-12 5.383-12 12s5.383 12 12 12 12-5.383 12-12-5.383-12-12-12z" fill="#eceff1"/><path d="m12 0c-6.617 0-12 5.383-12 12 0 6.617 5.383 12 12 12z" fill="#cdd0d2"/><path d="m11 17.25c0 .965-.785 1.75-1.75 1.75h-2.5c-.965 0-1.75-.785-1.75-1.75v-2.5c0-.965.785-1.75 1.75-1.75h2.5c.965 0 1.75.785 1.75 1.75z" fill="#2196f3"/><path d="m11 9.25c0 .965-.785 1.75-1.75 1.75h-2.5c-.965 0-1.75-.785-1.75-1.75v-2.5c0-.965.785-1.75 1.75-1.75h2.5c.965 0 1.75.785 1.75 1.75z" fill="#4caf50"/><path d="m19 17.25c0 .965-.785 1.75-1.75 1.75h-2.5c-.965 0-1.75-.785-1.75-1.75v-2.5c0-.965.785-1.75 1.75-1.75h2.5c.965 0 1.75.785 1.75 1.75z" fill="#f44336"/><path d="m19 9.25c0 .965-.785 1.75-1.75 1.75h-2.5c-.965 0-1.75-.785-1.75-1.75v-2.5c0-.965.785-1.75 1.75-1.75h2.5c.965 0 1.75.785 1.75 1.75z" fill="#ffc107"/><path d="m8 13h-1.25c-.965 0-1.75.785-1.75 1.75v2.5c0 .965.785 1.75 1.75 1.75h1.25z" fill="#1d83d4"/><path d="m8 5h-1.25c-.965 0-1.75.785-1.75 1.75v2.5c0 .965.785 1.75 1.75 1.75h1.25z" fill="#429846"/><path d="m16 13h-1.25c-.965 0-1.75.785-1.75 1.75v2.5c0 .965.785 1.75 1.75 1.75h1.25z" fill="#d43a2f"/><path d="m16 5h-1.25c-.965 0-1.75.785-1.75 1.75v2.5c0 .965.785 1.75 1.75 1.75h1.25z" fill="#dea806"/></svg>